<svg fill="none" height="24" viewBox="0 0 24 24" width="24" xmlns="http://www.w3.org/2000/svg"><g clip-rule="evenodd" fill="rgb(0,0,0)" fill-rule="evenodd"><path d="m12 14.5c1.3807 0 2.5-1.1193 2.5-2.5s-1.1193-2.50002-2.5-2.50002-2.5 1.11932-2.5 2.50002 1.1193 2.5 2.5 2.5zm0 1.5c2.2091 0 4-1.7909 4-4 0-2.20916-1.7909-4.00002-4-4.00002-2.20914 0-4 1.79086-4 4.00002 0 2.2091 1.79086 4 4 4z"/><path d="m17.25 12c0-.4142.3358-.75.75-.75h3c.4142 0 .75.3358.75.75s-.3358.75-.75.75h-3c-.4142 0-.75-.3358-.75-.75z"/><path d="m2.25 12c0-.4142.33579-.75.75-.75h3c.41421 0 .75.3358.75.75s-.33579.75-.75.75h-3c-.41421 0-.75-.3358-.75-.75z"/><path d="m12 21.75c-.4142 0-.75-.3358-.75-.75v-3c0-.4142.3358-.75.75-.75s.75.3358.75.75v3c0 .4142-.3358.75-.75.75zm0-15c-.4142 0-.75-.33579-.75-.75v-3c0-.41421.3358-.75.75-.75s.75.33579.75.75v3c0 .41421-.3358.75-.75.75z"/><path d="m12 6.75c-.4142 0-.75-.33579-.75-.75v-3c0-.41421.3358-.75.75-.75s.75.33579.75.75v3c0 .41421-.3358.75-.75.75z"/><path d="m12 21.75c-.4142 0-.75-.3358-.75-.75v-3c0-.4142.3358-.75.75-.75s.75.3358.75.75v3c0 .4142-.3358.75-.75.75z"/></g></svg>