<svg height="512" viewBox="0 0 64 64" width="512" xmlns="http://www.w3.org/2000/svg"><g id="Layer_31" data-name="Layer 31"><path d="m60.159 30.912c-8.571 0-15.519-7.227-15.519-16.141a16.651 16.651 0 0 1 1.039-5.771 15.979 15.979 0 0 0 -12.679 15.859c0 8.914 6.948 16.141 15.52 16.141a15.545 15.545 0 0 0 14.48-10.371 14.956 14.956 0 0 1 -2.841.283z" fill="#f8c460"/><path d="m58.278 37.332a4.176 4.176 0 0 1 -2.828-2.76 10.991 10.991 0 0 0 -12.5-7.379 4.044 4.044 0 0 1 -4.377-2.293 14.08 14.08 0 0 0 -4.673-5.442 16.651 16.651 0 0 0 -.9 5.4c0 8.915 6.948 16.142 15.52 16.142a15.056 15.056 0 0 0 9.816-3.651z" fill="#faaf42"/><path d="m38.847 31.043a13.982 13.982 0 0 0 -27.694 0 10.995 10.995 0 0 0 .847 21.957h26a10.995 10.995 0 0 0 .847-21.957z" fill="#62b5e8"/><path d="m41 50h-26a10.986 10.986 0 0 1 -9.136-17.108 10.986 10.986 0 0 0 6.136 20.108h26a10.988 10.988 0 0 0 9.132-4.868 10.945 10.945 0 0 1 -6.132 1.868z" fill="#44a7d8"/><path d="m49 42a10.994 10.994 0 0 0 -10.153-10.957 13.941 13.941 0 0 0 -.556-2.39 11 11 0 0 0 -7.241 9.347c-.017 0-.033 0-.05 0a8 8 0 0 0 -3.87 15h10.87a11 11 0 0 0 11-11z" fill="#44a7d8"/><path d="m55 39c-.017 0-.033 0-.05 0a10.995 10.995 0 0 0 -21.9 0c-.017 0-.033 0-.05 0a8 8 0 0 0 0 16h22a8 8 0 0 0 0-16z" fill="#62b5e8"/><path d="m58 52h-22a7.993 7.993 0 0 1 -6.951-11.951 8 8 0 0 0 3.951 14.951h22a7.993 7.993 0 0 0 6.951-4.049 7.959 7.959 0 0 1 -3.951 1.049z" fill="#44a7d8"/></g></svg>