<svg height="512" viewBox="0 0 64 64" width="512" xmlns="http://www.w3.org/2000/svg"><g id="Layer_31" data-name="Layer 31"><circle cx="44" cy="20" fill="#f8c460" r="13"/><path d="m42.515 32.917a13 13 0 0 0 12.839-6.593 10.988 10.988 0 0 0 -10.354-7.324h-.066a8.39 8.39 0 0 1 -7.209-3.6 14.072 14.072 0 0 0 -3.631-3.8 12.991 12.991 0 0 0 8.421 21.324z" fill="#faaf42"/><path d="m38.847 23.043a13.982 13.982 0 0 0 -27.694 0 10.995 10.995 0 0 0 .847 21.957h26a10.995 10.995 0 0 0 .847-21.957z" fill="#7a838b"/><path d="m49 34a10.994 10.994 0 0 0 -10.153-10.957 13.941 13.941 0 0 0 -.556-2.39 11 11 0 0 0 -7.241 9.347c-.017 0-.033 0-.05 0a8 8 0 0 0 -3.87 15h10.87a11 11 0 0 0 11-11z" fill="#5d6972"/><path d="m41 42h-26a10.986 10.986 0 0 1 -9.136-17.108 10.986 10.986 0 0 0 6.136 20.108h26a10.988 10.988 0 0 0 9.132-4.868 10.945 10.945 0 0 1 -6.132 1.868z" fill="#5d6972"/><path d="m55 31c-.017 0-.033 0-.05 0a10.995 10.995 0 0 0 -21.9 0c-.017 0-.033 0-.05 0a8 8 0 0 0 0 16h22a8 8 0 0 0 0-16z" fill="#7a838b"/><path d="m58 44h-22a7.993 7.993 0 0 1 -6.951-11.951 8 8 0 0 0 3.951 14.951h22a7.993 7.993 0 0 0 6.951-4.049 7.959 7.959 0 0 1 -3.951 1.049z" fill="#5d6972"/><path d="m38 43h-4l4-12h-9l-3 16h5l-3 16z" fill="#f8c460"/><path d="m32 31h-3l-3 16h3z" fill="#faaf42"/><path d="m34 47h-3l-3 16 4.8-9.6z" fill="#faaf42"/><path d="m10.855 53a1.792 1.792 0 0 1 -1.655-2.589l2.29-4.422a1.861 1.861 0 0 1 1.655-.989 1.792 1.792 0 0 1 1.655 2.589l-2.29 4.422a1.861 1.861 0 0 1 -1.655.989z" fill="#62b5e8"/><path d="m50.855 53a1.792 1.792 0 0 1 -1.655-2.589l2.29-4.422a1.861 1.861 0 0 1 1.655-.989 1.792 1.792 0 0 1 1.655 2.589l-2.29 4.422a1.861 1.861 0 0 1 -1.655.989z" fill="#62b5e8"/><path d="m20.855 63a1.792 1.792 0 0 1 -1.655-2.589l2.29-4.422a1.861 1.861 0 0 1 1.655-.989 1.792 1.792 0 0 1 1.655 2.589l-2.29 4.422a1.861 1.861 0 0 1 -1.655.989z" fill="#62b5e8"/><path d="m40.855 63a1.792 1.792 0 0 1 -1.655-2.589l2.29-4.422a1.861 1.861 0 0 1 1.655-.989 1.792 1.792 0 0 1 1.655 2.589l-2.29 4.422a1.861 1.861 0 0 1 -1.655.989z" fill="#62b5e8"/><g fill="#f8c460"><path d="m44 4.994a1 1 0 0 0 1-1v-2a1 1 0 0 0 -2 0v2a1 1 0 0 0 1 1z"/><path d="m60 21h2a1 1 0 0 0 0-2h-2a1 1 0 0 0 0 2z"/><path d="m56.021 9.973a1 1 0 0 0 .707-.293l1.414-1.414a1 1 0 1 0 -1.414-1.414l-1.415 1.414a1 1 0 0 0 .708 1.707z"/><path d="m31.272 9.68a1 1 0 0 0 1.415-1.414l-1.415-1.414a1 1 0 1 0 -1.414 1.414z"/></g></g></svg>