<svg height="512" viewBox="0 0 48 48" width="512" xmlns="http://www.w3.org/2000/svg"><g id="Layer_31" data-name="Layer 31"><path d="m23 15a5.975 5.975 0 0 0 -2.215.428 5.993 5.993 0 0 0 -11.57 0 6 6 0 1 0 -2.215 11.572h16a6 6 0 0 0 0-12z" fill="#848484"/><path d="m26 24h-16a5.993 5.993 0 0 1 -5.466-8.466 6 6 0 0 0 2.466 11.466h16a6 6 0 0 0 5.466-3.534 5.974 5.974 0 0 1 -2.466.534z" fill="#6a6a6a"/><path d="m46.835 15a9.959 9.959 0 0 1 -9.913-10 10.039 10.039 0 0 1 .826-4 10 10 0 0 0 .165 20 9.908 9.908 0 0 0 9.087-6.011c-.055.001-.109.011-.165.011z" fill="#f8ce11"/><path d="m38 17c-.067 0-.132.009-.2.01a10 10 0 0 0 -19.6 0c-.067 0-.132-.01-.2-.01a9 9 0 0 0 0 18h20a9 9 0 0 0 0-18z" fill="#848484"/><path d="m41 32h-20a8.986 8.986 0 0 1 -7.678-13.678 8.993 8.993 0 0 0 4.678 16.678h20a8.986 8.986 0 0 0 7.678-4.322 8.944 8.944 0 0 1 -4.678 1.322z" fill="#6a6a6a"/><g fill="#4e93d1"><path d="m15.4 46a1.028 1.028 0 0 1 -.287-.042 1 1 0 0 1 -.671-1.245l.6-2a1 1 0 0 1 1.916.574l-.6 2a1 1 0 0 1 -.958.713z"/><path d="m17.2 40a1.023 1.023 0 0 1 -.287-.042 1 1 0 0 1 -.671-1.245l.6-2a1 1 0 0 1 1.916.574l-.6 2a1 1 0 0 1 -.958.713z"/><path d="m31.4 46a1.028 1.028 0 0 1 -.287-.042 1 1 0 0 1 -.671-1.245l.6-2a1 1 0 0 1 1.916.574l-.6 2a1 1 0 0 1 -.958.713z"/><path d="m33.2 40a1.023 1.023 0 0 1 -.287-.042 1 1 0 0 1 -.671-1.245l.6-2a1 1 0 0 1 1.916.574l-.6 2a1 1 0 0 1 -.958.713z"/><path d="m22.8 48a1.029 1.029 0 0 1 -.288-.042 1 1 0 0 1 -.67-1.246l.6-2a1 1 0 0 1 1.916.576l-.6 2a1 1 0 0 1 -.958.712z"/><path d="m24.6 42a1.029 1.029 0 0 1 -.288-.042 1 1 0 0 1 -.67-1.246l.6-2a1 1 0 1 1 1.916.576l-.6 2a1 1 0 0 1 -.958.712z"/></g></g></svg>