<svg height="512" viewBox="0 0 64 64" width="512" xmlns="http://www.w3.org/2000/svg"><g id="Layer_31" data-name="Layer 31"><path d="m38.847 13.043a13.982 13.982 0 0 0 -27.694 0 10.995 10.995 0 0 0 .847 21.957h26a10.995 10.995 0 0 0 .847-21.957z" fill="#7a838b"/><path d="m49 24a10.994 10.994 0 0 0 -10.153-10.957 13.941 13.941 0 0 0 -.556-2.39 11 11 0 0 0 -7.241 9.347c-.017 0-.033 0-.05 0a8 8 0 0 0 -3.87 15h10.87a11 11 0 0 0 11-11z" fill="#5d6972"/><path d="m41 32h-26a10.986 10.986 0 0 1 -9.136-17.108 10.986 10.986 0 0 0 6.136 20.108h26a10.988 10.988 0 0 0 9.132-4.868 10.945 10.945 0 0 1 -6.132 1.868z" fill="#5d6972"/><path d="m55 21c-.017 0-.033 0-.05 0a10.995 10.995 0 0 0 -21.9 0c-.017 0-.033 0-.05 0a8 8 0 0 0 0 16h22a8 8 0 0 0 0-16z" fill="#7a838b"/><path d="m58 34h-22a7.993 7.993 0 0 1 -6.951-11.951 8 8 0 0 0 3.951 14.951h22a7.993 7.993 0 0 0 6.951-4.049 7.959 7.959 0 0 1 -3.951 1.049z" fill="#5d6972"/><path d="m38 41h-4l4-12h-9l-3 16h5l-3 16z" fill="#f8c460"/><g fill="#62b5e8"><path d="m17.855 43a1.792 1.792 0 0 1 -1.655-2.589l2.29-4.422a1.861 1.861 0 0 1 1.655-.989 1.792 1.792 0 0 1 1.655 2.589l-2.29 4.422a1.861 1.861 0 0 1 -1.655.989z"/><path d="m8.855 53a1.792 1.792 0 0 1 -1.655-2.589l2.29-4.422a1.861 1.861 0 0 1 1.655-.989 1.792 1.792 0 0 1 1.655 2.589l-2.29 4.422a1.861 1.861 0 0 1 -1.655.989z"/><path d="m13.855 63a1.792 1.792 0 0 1 -1.655-2.589l2.29-4.422a1.861 1.861 0 0 1 1.655-.989 1.792 1.792 0 0 1 1.655 2.589l-2.29 4.422a1.861 1.861 0 0 1 -1.655.989z"/><path d="m47.855 43a1.792 1.792 0 0 1 -1.655-2.589l2.29-4.422a1.861 1.861 0 0 1 1.655-.989 1.792 1.792 0 0 1 1.655 2.589l-2.29 4.422a1.861 1.861 0 0 1 -1.655.989z"/><path d="m52.855 53a1.792 1.792 0 0 1 -1.655-2.589l2.29-4.422a1.861 1.861 0 0 1 1.655-.989 1.792 1.792 0 0 1 1.655 2.589l-2.29 4.422a1.861 1.861 0 0 1 -1.655.989z"/><path d="m43.855 63a1.792 1.792 0 0 1 -1.655-2.589l2.29-4.422a1.861 1.861 0 0 1 1.655-.989 1.792 1.792 0 0 1 1.655 2.589l-2.29 4.422a1.861 1.861 0 0 1 -1.655.989z"/></g><path d="m32 29h-3l-3 16h3z" fill="#faaf42"/><path d="m34 45h-3l-3 16 4.8-9.6z" fill="#faaf42"/></g></svg>