<svg height="512" viewBox="0 0 64 64" width="512" xmlns="http://www.w3.org/2000/svg"><g id="Layer_31" data-name="Layer 31"><path d="m38.847 13.043a13.982 13.982 0 0 0 -27.694 0 10.995 10.995 0 0 0 .847 21.957h26a10.995 10.995 0 0 0 .847-21.957z" fill="#7a838b"/><path d="m49 24a10.994 10.994 0 0 0 -10.153-10.957 13.941 13.941 0 0 0 -.556-2.39 11 11 0 0 0 -7.241 9.347c-.017 0-.033 0-.05 0a8 8 0 0 0 -3.87 15h10.87a11 11 0 0 0 11-11z" fill="#5d6972"/><path d="m41 32h-26a10.986 10.986 0 0 1 -9.136-17.108 10.986 10.986 0 0 0 6.136 20.108h26a10.988 10.988 0 0 0 9.132-4.868 10.945 10.945 0 0 1 -6.132 1.868z" fill="#5d6972"/><path d="m55 21c-.017 0-.033 0-.05 0a10.995 10.995 0 0 0 -21.9 0c-.017 0-.033 0-.05 0a8 8 0 0 0 0 16h22a8 8 0 0 0 0-16z" fill="#7a838b"/><path d="m58 34h-22a7.993 7.993 0 0 1 -6.951-11.951 8 8 0 0 0 3.951 14.951h22a7.993 7.993 0 0 0 6.951-4.049 7.959 7.959 0 0 1 -3.951 1.049z" fill="#5d6972"/><g fill="#62b5e8"><path d="m17.855 43a1.792 1.792 0 0 1 -1.655-2.589l2.29-4.422a1.861 1.861 0 0 1 1.655-.989 1.792 1.792 0 0 1 1.655 2.589l-2.29 4.422a1.861 1.861 0 0 1 -1.655.989z"/><path d="m8.855 53a1.792 1.792 0 0 1 -1.655-2.589l2.29-4.422a1.861 1.861 0 0 1 1.655-.989 1.792 1.792 0 0 1 1.655 2.589l-2.29 4.422a1.861 1.861 0 0 1 -1.655.989z"/><path d="m13.855 63a1.792 1.792 0 0 1 -1.655-2.589l2.29-4.422a1.861 1.861 0 0 1 1.655-.989 1.792 1.792 0 0 1 1.655 2.589l-2.29 4.422a1.861 1.861 0 0 1 -1.655.989z"/><path d="m47.855 43a1.792 1.792 0 0 1 -1.655-2.589l2.29-4.422a1.861 1.861 0 0 1 1.655-.989 1.792 1.792 0 0 1 1.655 2.589l-2.29 4.422a1.861 1.861 0 0 1 -1.655.989z"/><path d="m52.855 53a1.792 1.792 0 0 1 -1.655-2.589l2.29-4.422a1.861 1.861 0 0 1 1.655-.989 1.792 1.792 0 0 1 1.655 2.589l-2.29 4.422a1.861 1.861 0 0 1 -1.655.989z"/><path d="m43.855 63a1.792 1.792 0 0 1 -1.655-2.589l2.29-4.422a1.861 1.861 0 0 1 1.655-.989 1.792 1.792 0 0 1 1.655 2.589l-2.29 4.422a1.861 1.861 0 0 1 -1.655.989z"/></g><path d="m41.874 56.485a1 1 0 0 0 -.388-1.359l-2.31-1.283 1.832-.472a1 1 0 1 0 -.5-1.937l-3.873 1-2.576-1.434 2.577-1.432 3.873 1a.986.986 0 0 0 .25.032 1 1 0 0 0 .249-1.969l-1.832-.472 2.31-1.283a1 1 0 0 0 -.972-1.748l-2.414 1.336.5-1.793a1 1 0 1 0 -1.926-.537l-1.029 3.7-2.645 1.466v-2.874l2.811-2.705a1 1 0 0 0 -1.387-1.442l-1.424 1.371v-2.65a1 1 0 0 0 -2 0v2.65l-1.424-1.371a1 1 0 0 0 -1.387 1.442l2.811 2.705v2.874l-2.649-1.472-1.029-3.695a1 1 0 1 0 -1.926.537l.5 1.793-2.409-1.338a1 1 0 0 0 -.972 1.748l2.31 1.283-1.832.472a1 1 0 0 0 .249 1.969.986.986 0 0 0 .25-.032l3.873-1 2.576 1.435-2.577 1.432-3.873-1a1 1 0 1 0 -.5 1.937l1.832.472-2.31 1.283a1 1 0 0 0 .972 1.748l2.415-1.336-.5 1.793a1 1 0 1 0 1.926.537l1.029-3.695 2.645-1.471v2.875l-2.811 2.705a1 1 0 0 0 1.387 1.442l1.424-1.372v2.65a1 1 0 0 0 2 0v-2.65l1.424 1.371a1 1 0 0 0 1.387-1.442l-2.811-2.705v-2.874l2.649 1.472 1.029 3.7a1 1 0 1 0 1.926-.537l-.5-1.793 2.409 1.338a1 1 0 0 0 1.36-.389z" fill="#d6e4e8"/></g></svg>