<svg id="Layer_18" fill="#fff" height="512" viewBox="0 0 32 32" width="512" xmlns="http://www.w3.org/2000/svg" data-name="Layer 18"><path d="m29 18.76a2.183 2.183 0 0 1 -1.578-.661 4.183 4.183 0 0 0 -5.651 0l-.041.032c-1.466-5.707-8.613-15.308-8.93-15.731a1.036 1.036 0 0 0 -1.6 0c-.942 1.26-9.2 12.445-9.2 17.6a10 10 0 0 0 15.557 8.315 1 1 0 0 0 -1.113-1.662 8 8 0 0 1 -12.444-6.653c0-3.437 5.192-11.39 8-15.3 1.939 2.716 6.8 9.818 7.813 14.025a2.4 2.4 0 0 1 -1.191-.624 4.178 4.178 0 0 0 -5.648 0 2.178 2.178 0 0 1 -1.573.66 1 1 0 0 0 0 2 4.079 4.079 0 0 0 2.823-1.1 2.206 2.206 0 0 1 3.148 0 4.182 4.182 0 0 0 5.65 0 2.213 2.213 0 0 1 3.155 0 4.089 4.089 0 0 0 2.823 1.099 1 1 0 0 0 0-2z"/><path d="m29 22.88a2.183 2.183 0 0 1 -1.578-.661 4.183 4.183 0 0 0 -5.651 0 2.209 2.209 0 0 1 -3.152 0 4.178 4.178 0 0 0 -5.648 0 2.178 2.178 0 0 1 -1.573.66 1 1 0 0 0 0 2 4.079 4.079 0 0 0 2.823-1.1 2.206 2.206 0 0 1 3.148 0 4.182 4.182 0 0 0 5.65 0 2.213 2.213 0 0 1 3.155 0 4.089 4.089 0 0 0 2.826 1.101 1 1 0 0 0 0-2z"/><path d="m25.5 15a4.5 4.5 0 0 0 4.5-4.5c0-2.163-3.087-6.3-3.706-7.108a1.037 1.037 0 0 0 -1.588 0c-.619.808-3.706 4.945-3.706 7.108a4.5 4.5 0 0 0 4.5 4.5zm0-9.3c1.216 1.734 2.5 3.9 2.5 4.8a2.5 2.5 0 0 1 -5 0c0-.9 1.284-3.066 2.5-4.8z"/></svg>
