<svg xmlns="http://www.w3.org/2000/svg" xmlns:xlink="http://www.w3.org/1999/xlink" version="1.1" id="Layer_1" x="0px" y="0px" viewBox="0 0 512 512" style="enable-background:new 0 0 512 512;" xml:space="preserve" width="512" height="512">
<g>

		<circle style="fill:none;stroke:#fff;stroke-width:30;stroke-linecap:round;stroke-linejoin:round;stroke-miterlimit:10;" cx="256" cy="256" r="168.7"/>

		<line style="fill:none;stroke:#fff;stroke-width:30;stroke-linecap:round;stroke-linejoin:round;stroke-miterlimit:10;" x1="15" y1="256" x2="31.067" y2="256"/>

		<line style="fill:none;stroke:#fff;stroke-width:30;stroke-linecap:round;stroke-linejoin:round;stroke-miterlimit:10;" x1="480.933" y1="256" x2="497" y2="256"/>

		<line style="fill:none;stroke:#fff;stroke-width:30;stroke-linecap:round;stroke-linejoin:round;stroke-miterlimit:10;" x1="256" y1="15" x2="256" y2="31.067"/>

		<line style="fill:none;stroke:#fff;stroke-width:30;stroke-linecap:round;stroke-linejoin:round;stroke-miterlimit:10;" x1="256" y1="480.933" x2="256" y2="497"/>

		<line style="fill:none;stroke:#fff;stroke-width:30;stroke-linecap:round;stroke-linejoin:round;stroke-miterlimit:10;" x1="85.589" y1="85.581" x2="96.948" y2="96.948"/>

		<line style="fill:none;stroke:#fff;stroke-width:30;stroke-linecap:round;stroke-linejoin:round;stroke-miterlimit:10;" x1="415.052" y1="415.052" x2="426.411" y2="426.411"/>

		<line style="fill:none;stroke:#fff;stroke-width:30;stroke-linecap:round;stroke-linejoin:round;stroke-miterlimit:10;" x1="426.411" y1="85.581" x2="415.052" y2="96.948"/>

		<line style="fill:none;stroke:#fff;stroke-width:30;stroke-linecap:round;stroke-linejoin:round;stroke-miterlimit:10;" x1="96.948" y1="415.052" x2="85.589" y2="426.411"/>
	<path style="fill:none;stroke:#fff;stroke-width:30;stroke-linecap:round;stroke-linejoin:round;stroke-miterlimit:10;" d="&#10;&#9;&#9;M175.667,207.8v68.283c0,15.529,12.588,28.117,28.117,28.117s28.117-12.588,28.117-28.117c0-28.462,0-68.283,0-68.283"/>

		<polyline style="fill:none;stroke:#fff;stroke-width:30;stroke-linecap:round;stroke-linejoin:round;stroke-miterlimit:10;" points="&#10;&#9;&#9;280.1,207.8 312.233,304.2 344.367,207.8 &#9;"/>
</g>















</svg>
